<svg width="140" height="30" viewBox="0 0 713 152" fill="current" xmlns="http://www.w3.org/2000/svg">
<path d="M438.7 20.7H452.1V121.8H441.3L389.3 46.2V121.8H375.9V20.7H386.7L438.7 96.1V20.7Z"/>
<path d="M481.4 91.5C483.9 104.4 493.8 111.9 507.5 111.9C517 111.9 524 108.4 528.3 101.3L539 107.4C531.9 118.2 521.4 123.7 507.2 123.7C495.8 123.7 486.4 120.1 479.2 113C472.1 105.8 468.5 96.7 468.5 85.7C468.5 74.9 472 65.8 479 58.5C486.1 51.3 495.2 47.7 506.3 47.7C516.8 47.7 525.5 51.5 532.2 59C539 66.4 542.3 75.3 542.3 85.9C542.3 87.8 542.2 89.7 541.9 91.5H481.4ZM481.4 80.5H529.7C527.5 66.8 518 59.6 506.4 59.6C493 59.6 483.6 67.8 481.4 80.5Z"/>
<path d="M639.1 49.6H652.3L629.9 121.8H617L600.1 68.4L583.2 121.8H570.3L547.9 49.6H561L576.9 104.5L593.9 49.6H606L623.1 104.6L639.1 49.6Z"/>
<path d="M685.9 79.9C697.2 82.4 712.2 86.5 712 102C712 108.5 709.4 113.9 704.3 117.8C699.2 121.7 692.9 123.7 684.9 123.7C670.9 123.7 660.3 117.1 656.2 106.8L667 100.6C669.3 107.5 676.1 111.9 684.9 111.9C693.1 111.9 699.2 108.9 699.2 102.1C699.2 96.5 692.8 93.3 684.9 91.4C673.5 88.4 658.8 84.6 658.8 69.3C658.8 63.1 661.3 57.9 666 53.8C670.9 49.8 677 47.7 684.3 47.7C696 47.7 705.7 53.3 710.3 62.7L699.8 68.6C697.2 62.4 692 59.4 684.3 59.4C677.2 59.4 671.4 62.9 671.4 69.1C671.6 74.7 678 77.8 685.9 79.9Z"/>
<path d="M37.7 20.7C47.4 20.7 55.6 24 62.3 30.5C68.9 37 72.3 45.1 72.3 54.6C72.3 64.1 69 72.2 62.3 78.7C55.7 85.2 47.4 88.5 37.7 88.5H19.9V121.7H0V20.7H37.7ZM37.7 69.9C46.2 69.9 52.4 63.3 52.4 54.6C52.4 45.8 46.2 39.3 37.7 39.3H19.9V69.9H37.7Z"/>
<path d="M114 123.8C103.3 123.8 94.2 120.2 86.8 112.8C79.4 105.4 75.8 96.3 75.8 85.6C75.8 74.9 79.4 65.9 86.8 58.6C94.2 51.2 103.3 47.5 114 47.5C124.7 47.5 133.8 51.3 141.2 58.6C148.6 66 152.3 74.9 152.3 85.6C152.3 96.3 148.5 105.4 141.2 112.8C133.8 120.2 124.7 123.8 114 123.8ZM114 105.6C119.6 105.6 124.3 103.7 128 100C131.8 96.2 133.6 91.5 133.6 85.7C133.6 79.9 131.7 75.1 128 71.4C124.2 67.6 119.6 65.8 114 65.8C108.4 65.8 103.7 67.7 100 71.4C96.4 75.2 94.5 79.9 94.5 85.7C94.5 91.5 96.4 96.2 100 100C103.8 103.7 108.4 105.6 114 105.6Z"/>
<path d="M194.2 78C204.7 80.2 218.5 85.2 218.3 100.7C218.3 108.1 215.6 113.9 209.9 117.9C204.4 121.8 197.5 123.8 189.2 123.8C174.3 123.8 164.2 118 158.9 106.6L175.1 97.5C177.3 103.7 181.9 106.9 189.3 106.9C195.9 106.9 199.3 104.9 199.3 100.7C199.3 96.8 193.5 94.6 186.2 92.7C175.5 90 162 85.5 162 70.5C162 63.4 164.6 57.8 169.8 53.7C175.1 49.5 181.6 47.5 189.4 47.5C201.1 47.5 211.2 53 216.8 62.8L201 71.5C198.7 66.6 194.8 64.1 189.4 64.1C184.6 64.1 181 66.4 181 70C181.1 74 186.9 76.1 194.2 78Z"/>
<path d="M269.5 67.5H253.2V97.6C253.2 105.4 258.8 105.5 269.5 105V121.9C243.9 124.8 234.5 117.4 234.5 97.6V67.5H222V49.5H234.6V35L253.2 29.4V49.6H269.5V67.5Z"/>
<path d="M307.2 0H297.9V151.7H307.2V0Z"/>
</svg>
